<svg version="1.1" id="svg2" width="512.92" height="172.573" xmlns="http://www.w3.org/2000/svg"><g id="g8" transform="matrix(1.33333 0 0 -1.33333 0 172.573)"><g id="g10" transform="scale(.1)"><path d="M1434.91 119.949c-10.94-10.258-25.08-17.668-40.51-17.668-23.47 0-38.61 17.348-38.61 47.59 0 30.891 16.42 49.16 41.5 49.16 12.86 0 26.68-4.761 37.62-12.211zm0-23.48v-22.52c0-13.18-2.24-22.468-7.41-29.238-9.66-12.86-28.61-18.992-54.33-18.992-17.71 0-36.02 2.883-50.47 7.41v-23.8C1336.84 4.8 1358.39 0 1383.47 0c35.01 0 62.38 9.328 78.48 29.29 9.3 11.85 13.18 27.32 13.18 48.831V228h-21.87l-14.19-20.281h-.6C1425.25 218.98 1406.94 228 1385.39 228c-37.62 0-71.07-29.57-71.07-78.809 0-50.48 31.21-75.242 65.91-75.242 23.19 0 41.86 10.262 54.04 22.52zm-173.79 396.937c20.79 2.082 36.14 10.254 50.96 18.184 16.5 8.82 32.13 17.031 55.72 16.672 21.19-.481 28.77-3.926 37.54-7.891 10.82-4.894 23.04-10.461 53.21-11.016 30.12-.441 43.9 8.653 56 16.825 11.66 7.851 22.72 15.226 53.17 17.383v29.57c-40.03-2.488-56.57-13.621-69.83-22.52-10.86-7.332-18.07-12.215-38.78-11.777-24 .402-32.09 4.082-41.43 8.332-10.25 4.687-21.91 9.98-49.24 10.535-31.4.801-52.19-10.371-70.47-20.144-13.37-7.18-24.91-13.34-39.78-14.786-20.63-2.082-40.66 3.086-60.05 8.055-15.42 3.965-30 7.688-44.79 8.008-21.87.402-40.22-9.57-58.05-19.227-11.62-6.328-22.59-12.304-33.61-14.746-27-6.125-74.557 7.45-92.585 13.828v-31.054c16.786-5.246 48.475-13.782 76.835-13.782 7.82 0 15.43.684 22.32 2.208 15.1 3.398 28.44 10.656 41.34 17.707 15.02 8.171 29.45 15.859 43.15 15.585 11.3-.207 24.28-3.527 37.94-7.05 20.87-5.41 44.51-11.465 70.43-8.899m253.43 115.5c11.66 7.852 22.72 15.262 53.17 17.391v29.562c-39.99-2.519-56.57-13.586-69.83-22.558-10.86-7.324-17.99-12.141-38.78-11.738-24 .449-32.05 4.128-41.43 8.339-10.25 4.649-21.91 9.969-49.24 10.536-31.44.675-52.16-10.379-70.43-20.157-13.41-7.168-24.99-13.34-39.78-14.785-20.67-2.039-40.7 3.047-60.05 8.059-15.46 3.965-30.01 7.695-44.83 8.008-21.87.398-40.22-9.571-58.01-19.231-11.66-6.328-22.63-12.293-33.65-14.824-6.13-1.317-13.34-1.68-21-1.317a1802.418 1802.418 0 01-34.85-25.195c12.86-2.531 26.84-4.414 40.1-4.414 7.85 0 15.43.645 22.32 2.246 15.1 3.367 28.44 10.613 41.38 17.625 14.98 8.215 29.09 16.106 43.11 15.625 11.34-.242 24.24-3.523 37.94-7.09 20.87-5.332 44.51-11.414 70.47-8.816 20.71 2.012 36.1 10.223 50.96 18.191 16.46 8.809 32.09 17.149 55.68 16.621 21.19-.437 28.77-3.925 37.54-7.89 10.78-4.922 23.04-10.449 53.21-11.016 30.08-.555 43.9 8.692 56 16.828m-335.96-385.117h-39.86V77.481h39.86V181.73c11.9 9.61 27.64 16.7 41.5 16.7 10.58 0 19.59-3.25 25.08-10.621 3.53-4.84 5.13-11.618 5.13-21.547V77.481h40.18v95.828c0 18.031-3.84 29.613-10.93 38.3-9.34 10.942-24.12 16.43-41.15 16.43-25.72 0-43.75-11.301-58.85-26.09h-.96zm-176.79-104.48c0 16.382 16.7 24.75 54.32 26.043v-29.571c-8.65-9.66-20.91-15.152-33.41-15.152-13.54 0-20.91 7.051-20.91 18.68m-41.23-3.848c0-29.961 23.84-41.512 47.68-41.512 21.83 0 38.22 7.742 53 21.88h.64c3.53-8.977 15.46-19.95 39.94-22.2l10.9 32.492c-12.86 2.848-16.71 9.02-16.71 18.668v55.289c0 38.902-29.93 47.922-60.81 47.922-20.56 0-45.636-5.168-63.022-14.469v-22.84c12.582 5.137 32.172 10.297 52.082 10.297 17.39 0 31.85-5.16 31.85-22.508v-12.218c-60.132-1.93-95.55-13.821-95.55-50.801M825.84 223.789h-39.86V77.481h39.86V181.73c11.898 9.61 27.687 16.7 41.508 16.7 10.617 0 19.59-3.25 25.078-10.621 3.566-4.84 5.129-11.618 5.129-21.547V77.481h40.179v95.828c0 18.031-3.804 29.613-10.894 38.3-9.336 10.942-24.16 16.43-41.184 16.43-25.718 0-43.707-11.301-58.855-26.09h-.961zm-184.883 0h-40.184V135.73c0-42.468 30.848-61.742 75.918-61.742 45.352 0 76.84 19.274 76.84 61.742v88.059h-40.187v-91.617c0-23.16-13.856-35.703-36.016-35.703-22.512 0-36.371 12.543-36.371 35.703zm-10.375 34.57h106.684v25.082h-121.11zm-136.816-1.757c20.511-4.493 36.297-13.473 36.297-34.372 0-19.269-13.821-30.89-37.938-35.699-11.262-2.242-26.039-2.609-35.055-2.609v75.598c9.938 0 25.356-.629 36.696-2.918m21.836 21.91c-24.801 5.129-59.493 4.808-99.036 4.808V77.48h40.504v82.372c8.375 0 18.95.277 24.758.918l53.402-85.848 47.274 3.887-67.227 88.089c35.379 9.024 57.571 27.012 57.571 54.684 0 36.977-30.883 51.117-57.246 56.93M208.125 162.051c0 28.961 13.539 43.469 31.848 43.469 22.836 0 31.211-18.989 30.886-38.938zM167.34 148.91c0-53.73 38.539-74.96 86.496-74.96 22.797 0 45.309 5.78 52.723 9.66v21.878c-4.809-2.609-26.364-6.457-42.465-6.457-38.262 0-54.649 14.789-55.969 46.039h101.996c.281 3.16.641 8.969.641 12.5 0 33.809-19.266 70.469-68.504 70.469-44.391 0-74.918-30.609-74.918-79.129m26.238 134.41H0v-29.558h76.195V77.481h40.547v176.281h76.836zM1495.28 827.766c-141.98-.797-372.7-12.297-545.405-70.789-15.582-3.61-31.531-8.614-48.035-10.778-27.16-3.562-55.688.602-86.094 31.25 0 0-47.152 53.961 45.594 115.215-4.371 0-392.293-63.934-730.055-177.23.16.039.278.117.438.156 71.672 46.39 208.925 137.133 277.632 183.648 2.844.68 5.813 1.442 8.653 2.121 24.117 5.77 48.238 11.7 72.394 17.547 37.778 9.172 75.641 18.348 113.536 27.364 142.703 33.691 294.617 68.19 445.532 86.66 9.33 1.12 23.36 2.6 21.51 2.36 49-47.556 118.55-92.466 174.39-121.63 10.34-5.41 21-10.734 31.89-15.863 41.75-19.594 123.16-51.762 215.94-70.031h2.08m-241.61 101.836c5.49-2.883 5.49-2.883 0-.039-63.66 33.214-115.86 70.867-158.25 108.487 47.03 4.61 89.34 6.37 131.48 2.93 21.04-1.73 52.81-4.33 73.6-16.07 16.86-9.49 25.84-27.68 21.75-44.144-3.6-14.586-19.67-25.121-36.29-34.176zm-206.04 131.568c-.56-.04-1.09-.12-1.65-.16-152.312-18.67-305.109-53.33-448.535-87.217-37.976-8.977-75.879-18.188-113.734-27.402-4.047-.961-8.051-1.922-12.016-2.887 14.703 10.816 34.493 25.523 53.2 39.703a376.222 376.222 0 0126.562 6.012c16.023 4.125 32.012 8.375 47.992 12.621 40.262 10.61 129.606 32.93 129.606 32.93l4.285 30.53s-106.043-26.85-141.141-36.1c-4.726-1.24-9.492-2.52-14.265-3.81 93.589 75.56 191.421 168.07 241.5 233.16 18.707-37.25 41.304-56.12 67.261-56.12 14.625 0 29.047 6.25 43.227 18.59 22.199-47.44 78.328-121.95 117.708-159.85m-478.107-37.98c-8.414-2.21-16.828-4.41-25.156-6.61-1.164-.28-2.363-.56-3.527-.88 1.164.32 2.363.6 3.488.88 8.367 2.2 16.781 4.4 25.195 6.61M407.07 898.676c-4.164-1.039-8.328-2.086-12.578-3.125-7.129-1.801-14.383-3.528-21.59-5.289 7.207 1.761 14.461 3.488 21.59 5.289 4.25 1.039 8.414 2.086 12.578 3.125m1208.96-72.832c-5.17.238-12.78.515-22.24.801 9.42-.286 17.11-.563 22.28-.801-133.09 13.578-242.3 46.39-331.16 88.219l14.43 7.566c22.43 12.262 44.11 27.125 50.36 52.324 7.13 28.767-7.38 59.857-35.3 75.637-26.24 14.75-61.69 17.67-85.17 19.59-53.68 4.41-108.69.32-161.17-5.61-4.97-.56-4.97-.52 0 0-99.677 98-134.091 188.62-131.728 190.98-73.152-97.23-112.812 44.39-112.812 39.58-64.7-91.66-172.747-189.65-288.407-279.83h-.043c-23.757-5.73-52.359-10.38-78.199-4.82-34.777 7.34-60.738 34.38-66.183 68.75-5.61 35.38 11.898 70.11 43.546 86.62 25.079 13.06 65.34 15.14 90.504-6.73 22.914-19.95 32.891-60.53 11.977-85.17-10.059-11.78-27.164-19.99-44.59-21.35-15.062-1.17-28.645 2.64-38.262 10.85-13.941 11.98-13.457 31.37-7.168 44.35 2.602 5.29 12.578 22.07 33.692 17.87 7.172-1.44 13.98-6.25 16.949-11.94 1.801-3.6 1.918-6.93.277-10.62-.324-.76-.84-1.44-1.441-2.12-3.609 6.33-10.418 10.65-18.231 10.65-11.656 0-21.109-9.41-21.109-21.07 0-.19.078-.39.078-.6 0-.2-.078-.36-.078-.6 0-2.44.602-4.81 1.602-6.89 1.879-4.49 5.328-8.13 9.613-10.42 3.043-1.96 6.812-3.44 11.34-4.36 16.386-3.41 36.976 7.89 44.066 23.91 5.125 11.5 4.727 23.96-1.039 35.1-6.851 13.3-20.836 23.56-36.461 26.68-26.84 5.45-52.242-7.65-64.699-33.21-13.383-27.44-7.531-59.62 14.219-78.2 15.347-13.14 36.3-19.39 58.894-17.59 25.039 1.96 48.957 13.66 63.899 31.29 32.214 37.86 17.949 96.11-14.985 124.75-35.015 30.45-87.894 28.33-122.109 10.54-42.422-22.11-65.899-68.79-58.406-116.14 7.289-46.03 41.863-82.209 88.172-92.064 10.296-2.164 20.714-3.086 31.089-3.086 2.246 0 4.489.078 6.735.203.238 0 .437 0 .676.039-.2-.039-.438-.039-.637-.039a3556.496 3556.496 0 00-63.66-46.676c-4.61-1.117-9.172-2.242-13.743-3.363a1780.983 1780.983 0 01-23.757-5.852c-27.481-6.851-55.844-13.98-83.653-17.426-40.82-5.05-74.23-2.964-101.996 6.411-43.867 14.863-73.109 52-76.355 96.953-3.047 42.34 23.636 86.5 62.136 102.6 30.606 12.86 76.157 13.46 104-10.26 24.317-20.79 37.254-51.64 32.973-78.64-6.211-38.939-47.234-60.735-81.812-58.653-20.707 1.281-38.332 10.976-47.032 26.043-10.375 17.87-8.25 39.86 5.411 56.04 11.578 13.63 29.605 17.91 47.07 11.14 7.097-2.72 12.863-8.97 14.949-16.22 1.316-4.45 1.879-11.1-2.926-17.71-1.246-1.64-2.886-3.05-4.687-4.21-1.645 10.9-11.02 19.32-22.399 19.32-10.015 0-18.386-6.46-21.468-15.43h-.122c-.078-.24-.078-.56-.125-.8-.636-2.09-1.078-4.25-1.078-6.58 0-3.32.801-6.52 2.125-9.37 2.602-7.446 8.051-14.18 15.625-17.345 17.067-7.171 42.743 1.125 54.922 17.705 8.934 12.22 11.621 27.69 7.332 42.35-4.609 15.79-16.547 28.73-31.926 34.65-28.609 11.1-59.578 3.53-78.886-19.22-21.473-25.45-24.719-60.18-8.293-88.504 13.461-23.277 39.543-38.258 69.828-40.106 53.684-3.203 103.684 33.778 111.453 82.41 5.891 37.1-10.418 77.2-42.586 104.64-38.223 32.58-95.906 30.53-133.328 14.86-49.918-20.95-83.371-75.95-79.399-130.76 4.086-56.485 40.704-103.075 95.508-121.704 20.95-7.09 44.305-10.578 70.586-10.578 13.86 0 28.446.922 43.989 2.925 18.187 2.243 36.214 5.848 54.043 9.977C186.691 767.031 35.54 681.422 35.54 681.422c.116.039.237.074.355.113-.157-.039-.239-.074-.356-.113 545.203 26.316 667.352-297.664 664.988-297.664 69.59 153.156 124.797 23.996 127.2 23.996 59.73 59.012 119.582 109.648 178.113 153.242-7.129 1.395-13.863 2.996-19.988 4.598a452.89 452.89 0 00-16.747 4.777v31.082c13.903-4.969 45.505-14.14 71.545-15.262 46.24 32.45 91.43 60.575 134.94 84.891a154.56 154.56 0 01-16.19 2.766c-2.24.238-4.53.597-6.65.636-3.16.086-6.41-.359-9.61-1.039-.33-.078-.61-.039-.93-.121-10.57-2.402-21.35-8.336-32.57-14.457-12.94-7.012-26.28-14.269-41.38-17.715-6.89-1.515-14.5-2.16-22.32-2.16-28.36 0-60.049 8.496-76.835 13.781v31.047c11.497-4.047 34.975-11.011 57.485-13.976 12.79-1.692 25.32-2.129 35.1.117 4.69 1.043 9.33 2.965 14.06 5.047 6.41 2.765 12.9 6.051 19.59 9.738 11.3 6.125 22.92 12.098 35.46 15.742 7.17 2.082 14.54 3.61 22.55 3.485 6.01-.16 11.98-1.121 17.99-2.164 8.81-1.524 17.66-3.524 26.84-5.848 5.29-1.402 10.7-2.766 16.15-4.004-12.79-6.609-25.64-13.586-38.7-20.875 4.88-1.121 9.89-2.363 15.1-3.68 20.83-5.371 44.47-11.425 70.39-8.859 20.79 2.043 36.14 10.215 50.96 18.187 16.5 8.817 32.13 17.106 55.72 16.629 21.19-.441 28.77-3.925 37.54-7.894 10.82-4.891 23.04-10.457 53.21-10.981 30.04-.597 43.9 8.661 56 16.829 11.66 7.812 22.72 15.222 53.17 17.347v29.567c-40.03-2.485-56.57-13.579-69.83-22.516-10.86-7.328-18.03-12.176-38.78-11.777-24 .441-32.09 4.125-41.43 8.332-10.25 4.687-21.91 9.972-49.24 10.574-31.4.723-52.19-10.414-70.47-20.152-13.37-7.208-24.91-13.34-39.78-14.817-14.98-1.484-29.56.801-43.86 4.086 234.16 121.863 410.39 133.484 410.39 133.484s-3.04.204-8.69.403m-22.6-710.063c-8.73-9.66-20.91-15.152-33.45-15.152-13.5 0-20.91 7.051-20.91 18.68 0 16.382 16.75 24.75 54.36 26.043zm45.63-42.152l10.98 32.492c-12.86 2.848-16.78 9.02-16.78 18.668v55.289c0 38.902-29.85 47.922-60.74 47.922-20.59 0-45.71-5.168-63.02-14.469v-22.84c12.5 5.137 32.13 10.297 52.08 10.297 17.35 0 31.85-5.16 31.85-22.508v-12.218c-60.13-1.93-95.54-13.821-95.54-50.801 0-29.961 23.83-41.512 47.63-41.512 21.87 0 38.22 7.742 53.04 21.88h.64c3.53-8.977 15.47-19.95 39.86-22.2m202.52 77.211c0-33.781-15.14-53.73-42.79-53.73-27 0-43.11 19.949-43.11 53.73 0 34.051 15.11 54 42.75 54 27.04 0 43.15-20.27 43.15-54m41.46 0c0 44.672-30.52 77.199-84.25 77.199-52.08 0-84.61-32.527-84.61-77.199 0-44.399 30.57-76.89 84.25-76.89 52.12 0 84.61 32.491 84.61 76.89m250.28-72.918h68.7v205.476h-53.61V135.41h-.68l-81.52 147.988h-74.15V77.922h53.6v154.117h.96zm242.93-3.531c28.56 0 56.17 4.82 66.78 8.34v103.078h-95.75l22.04-34.008 20.07-.039v-41.43c-2.25-.281-7.05-.594-11.86-.594-35.01 0-70.95 19.223-70.95 69.614 0 48.48 36.3 73.207 83.82 73.207 17.98 0 32.09-2.25 45.9-5.45v34.321c-9.29 2.25-27.92 6.14-54.92 6.14-72.23 0-131.29-41.429-131.29-109.129 0-69.992 54.89-104.05 126.16-104.05m159.73 235.968h106.6v25.039h-121.06zm110.29-232.437h60.05l-90.89 207.398h-52.33l-83.77-207.398h59.73l49.72 156.957h1l24.08-66.449-39.86.039 20.35-32.219h30.8zm101.12 0h53.64v205.437h-53.64zm294.01 165.656h73.52v39.82h-199.71v-39.82h72.87V77.922h53.32zm246.54-165.656h60.05l-90.82 207.398h-52.35l-83.77-207.398h59.69l49.79 156.957h.97l24.03-66.449-39.82.039 20.35-32.219h30.81zm245.9 0h53.61v205.476h-53.61v-83.449h-91.22v83.449h-53.6V77.922h53.6v82.168h91.22zm313.05 80.598v124.878h-53.28V157.531c0-30.133-13.14-48.801-48.16-48.801-35.33 0-48.19 18.668-48.19 48.801v125.867h-53.6V158.52c0-61.649 43.71-84.13 101.79-84.13 59.1 0 101.44 22.481 101.44 84.13" id="path12" fill="#fff" fill-opacity="1" fill-rule="nonzero" stroke="none"/></g></g></svg>